<svg id="Livello_1" data-name="Livello 1" xmlns="http://www.w3.org/2000/svg" viewBox="0 0 50 62.5"><defs><style>.cls-1{fill:#fff;}</style></defs><title>piano-01</title><path class="cls-1" d="M40.9,22.2a19.94,19.94,0,0,1-2.5-.7l-5-8.7a7,7,0,0,0,1.3-1.3,1.29,1.29,0,0,0,.4-1.2,1.55,1.55,0,0,0-.8-1.1A1.44,1.44,0,0,1,34,9a3,3,0,0,1,.5-.7l.2-.2c.7-.9,1.3-1.6,1.9-2.3.5-.5,1.5-1.2,2-1.6L39,4a1.22,1.22,0,0,0,.5-1.2,1.17,1.17,0,0,0-.9-1l-2.7-.7L35.3,1l-.4.3L11.2,19.9l-.7.5.2.3L6,22.3l-.9.3.2.9a8,8,0,0,1,.3,3.2,2.89,2.89,0,0,1-1.3,1,1.5,1.5,0,0,0-1.1,1.5v3.3l.8.2,5.7,1.4L11,40v.2c-.2.6-.4,1.4.1,1.9a2.41,2.41,0,0,0,1.7.7,2.34,2.34,0,0,0,1.8-.8,1.82,1.82,0,0,0-.2-2.1l-.1-.2.1-4.5,19.4,4.7.2,5.2v.6c-.5.9-.7,1.7-.4,2.2a2.57,2.57,0,0,0,2.2,1,2.1,2.1,0,0,0,1.5-.5c.2-.2.7-.7.1-2.3l.2-.5.1-.1v-.2L39.1,37l.9-1.8,1-2a3.37,3.37,0,0,0,.5-1.7l.6-7.6C42.4,23.2,41.8,22.4,40.9,22.2Zm.3,1.4-3.5,3.9h-1l4-4.3A.66.66,0,0,1,41.2,23.6Zm-3.9,9.2a9.35,9.35,0,0,1-1.4,3l-1-.2a12.32,12.32,0,0,0,1.4-3.1,17.45,17.45,0,0,0,.1-4.5l1.1.1A15.66,15.66,0,0,1,37.3,32.8Zm-29.7-9,.9-.3,27.7,3.8-.2.3v.1a10.07,10.07,0,0,1,.1,1.5L7.7,24.5A2,2,0,0,1,7.6,23.8Zm18.7-6.3c2.4.1,7.8.5,9.2,1.2s-1.7,1.5.5,2.8a9.76,9.76,0,0,0,1.7.7l1,1.8c0,.1.1.1.1.2l-.5.8h-.5c-.7-.3-2.5-1.1-2.7-2a3.7,3.7,0,0,1,0-1.5,1.13,1.13,0,0,0-.4-1.3c-1.1-1.1-7.9-1.6-8.7-1.6h-.1l-1.1.4-2.2-.3Zm10.4,9.4-5.2-.7,1.3-1.4,5.1.7ZM30.2,20c-1-.2-2.6-.6-4.6-.9L26,19c3,.2,7.6.7,8.3,1.5a.76.76,0,0,1,.2.9,8.38,8.38,0,0,0,0,1.6A2.76,2.76,0,0,0,36,24.7l-3.5-.5-1.4,1.5.3-4A1.54,1.54,0,0,0,30.2,20Zm-7.8-.7a67,67,0,0,1,7.7,1.2,1,1,0,0,1,.8,1.2L30.7,26,13.9,23.7l.2-.2L15.2,20a1.22,1.22,0,0,1,.9-.8A46.37,46.37,0,0,1,22.4,19.3Zm-8.8,4-.5.4h0l-3.6-.5,4.6-1.6ZM7.5,27.7A5.6,5.6,0,0,0,7.7,25L36,29.7a9.74,9.74,0,0,1-.2,2.4L11.3,27.6h-.1L6.6,29.7v1l26.7,5.9v-.8l2.3-3a26.42,26.42,0,0,1-1.4,2.9v1.7L5.7,30.7V29.3A3.82,3.82,0,0,0,7.5,27.7Zm.6,1.9.3.1,2.9-1.4h-.1l.2-.1,23.9,4.4-2.4,3.1V36L7.2,30.3V30ZM40.2,23l-.5.5-.5-.8A2.24,2.24,0,0,0,40.2,23Zm-3.7-2.3c-.1-.1-.2-.1-.3-.2l.1-.1c.1-.1.1-.2.2-.2l.5.8C36.8,20.9,36.7,20.8,36.5,20.7Zm-1.4-3.1a33,33,0,0,0-6.8-.9c.8-.5,1.7-1.2,2.8-2,.6-.5,1.2-.9,1.6-1.2Zm-23,3.7-.3-.6L35.6,2l2.7.7c.2.1.3.3.1.5a27,27,0,0,0-2.5,2,21.18,21.18,0,0,0-2,2.4c-.9,1.2-1.1,1.5-.9,2,0,.1.7.4,1,.6a.42.42,0,0,1,.1.7A8.45,8.45,0,0,1,33,12L30.9,8.3a.55.55,0,0,0-.7-.3.66.66,0,0,0-.2.7l2.2,3.9c-.5.4-1,.8-1.7,1.3a52.25,52.25,0,0,1-5.2,3.4l-4.1,1.4a36.41,36.41,0,0,0-5.2.2A1.63,1.63,0,0,0,14.7,20l-.3,1L7.3,23.4l-.6-.2Zm-5.6,6c.5-.6.1-2.9-.1-3.7l.7.2a11.46,11.46,0,0,1,0,3.7,3.79,3.79,0,0,1-1.7,1.4l-.7-.2A3.53,3.53,0,0,0,6.5,27.3ZM13.3,34l-.1,6,.2.4s.5.8.3,1a1.16,1.16,0,0,1-1,.4,1,1,0,0,1-.9-.4c-.2-.2.1-1,.1-1L12,40l-1.4-6.7L4.2,31.8V29l.9.3v1.8l29.6,6.8V36.1l1,.2v3.1l-1.2-.3ZM36.8,47.7a1.88,1.88,0,0,1-.8.2,1.81,1.81,0,0,1-1.4-.5c-.2-.4.5-1.5.5-1.5l-.1-.8-.2-5.5,1,.2h0l1.1-1-.5,7.4h0S37.1,47.5,36.8,47.7Zm3.9-16.1a2.84,2.84,0,0,1-.4,1.3l-1,2-1,1.9L37,44.5l.4-6.9-1.2,1.1V36.1a13.86,13.86,0,0,0,1.5-3.2,15.94,15.94,0,0,0,.3-5.1l3.2-3.6ZM22.5,32.8,25,30.9l.4.1L23,33Zm.6.2,2.5-1.9.4.1-2.4,2Zm.6.1,2.5-1.9.4.1-2.4,2Zm-4.6-1,2.5-1.8.4.1-2.4,1.8Zm.5.1,2.5-1.8.4.1-2.4,1.8Zm.6.1,2.5-1.8.4.1-2.4,1.8Zm-4.6-1,2.6-1.7.4.1-2.5,1.7Zm.6.1,2.6-1.7.4.1-2.5,1.7Zm.6.2,2.6-1.7.4.1-2.5,1.7Zm-4.3-1,2.7-1.5.4.1L13,30.7Zm.5.1,2.7-1.5.4.1-2.6,1.6Zm.6.2,2.6-1.6.4.1L14.1,31Zm-3.2-.8L13,28.6l.4.1-2.5,1.5ZM9.8,30l2.7-1.5.4.1-2.6,1.5Zm1.2.3,2.5-1.5.4.1-2.6,1.5Zm-1.9-.4-.5-.1,2.8-1.5.4.1Zm.1,0,2.7-1.5.4.1L9.7,30Zm15.5,3.4,2.5-1.9.4.1-2.4,1.9Zm.6.1,2.5-1.9.4.1-2.4,1.9ZM21,32.5l2.5-1.9.4.1-2.4,1.9Zm.6.1,2.5-1.9.4.1-2.4,1.9Zm-4-.9L20.1,30l.4.1-2.4,1.8Zm.6.2,2.5-1.7.4.1L18.8,32ZM14.3,31,17,29.4l.4.1-2.6,1.6Zm.5.1,2.6-1.6.4.1-2.5,1.6Zm-3.3-.7,2.7-1.5.4.1-2.7,1.5Zm.4.1L14.7,29l.4.1-2.7,1.5Zm14.5,3.1,2.4-2,.4.1-2.3,2Zm.6.2,2.4-2,.4.1-2.3,2Zm.7.1,2.4-2,.4.1-2.3,2Zm1.1.2,2.2-2,.4.1-2.1,2.1Zm.7.2,2.2-2.1.4.1L30,34.4Zm1,.2,2.2-2.1.4.1-2,2.1Zm.8.1,2-2.1.4.1-1.9,2.1Zm.7.2,2-2.2.4.1-1.9,2.2Z"/></svg>